<?xml version="1.0" encoding="UTF-8"?>
<!-- Generator: Adobe Illustrator 25.4.1, SVG Export Plug-In . SVG Version: 6.00 Build 0)  -->
<svg version="1.1" id="Ebene_1" xmlns="http://www.w3.org/2000/svg" xmlns:xlink="http://www.w3.org/1999/xlink" x="0px" y="0px" viewBox="0 0 3000 3000" style="enable-background:new 0 0 3000 3000;" xml:space="preserve">
<style type="text/css">
	.st0{enable-background:new    ;}
	.st1{fill-rule:evenodd;clip-rule:evenodd;}
</style>
<g id="Doctor_Who_Logo_00000149375553039593425950000010469805963656167594_" class="st0">
	<g id="Doctor_Who_Logo">
		<g>
			<path fill="#FFFFFF" class="st1" d="M2155,2124.1c-30.3,30.3-60.4,60.4-90.4,90.4c-68.8-33.2-139.7-31.9-210.6,5.5     c47.3-47.3,100-100.8,148-148.8c-9.2-5.6-17.3-10.6-25.6-15.6c-79.2,79.2-157.8,157.8-237,237c-18.6-25.3-39.7-46.4-64.6-63.5     s-52.1-29-82.9-37.3c29.7-29.8,89.1-88.7,89.1-88.7h-40c0,0-55.6,55.5-83,83c-17.3,0-36.8-0.9-55.5-0.9     c-26.4-26.7-80.5-81.1-80.5-81.1h-40c0,0,57.4,58.6,86.8,88c-61.5,16.5-109.4,50-146.5,100.5c-74.7-74.7-148.8-148.8-224-224     c-3.7,11-6.9,20.7-10.3,30.8c38.5,38.6,81.7,81.4,120,119.7c-71-38.8-147.2-37.7-217.6-1c-61.3-61.3-122.2-122.2-183.9-183.9     c-4.4,10.5-8.2,19.6-12.1,28.8c57.5,57.4,114.3,114.1,171.6,171.3c-5,4.3-9.3,7.9-13.4,11.7c-4.4,4-9.1,9.6-12.6,13.1     c197.7,197.7,396.3,397.3,592,593c196.1-196.1,394.3-395.3,592-593c-9.5-8.5-22.4-19.4-33.4-29.3     c33.3-33.4,66.6-66.6,101.3-101.3C2178,2126.8,2166.6,2125.5,2155,2124.1z M1522,2214.2c92.1-3.2,161.7,41,209,118.8     c-67.2,67.2-134,135-199,200c-65.6-65.6-131.7-133.7-199-201C1374.9,2261,1437.2,2217.2,1522,2214.2z M1532,2811     c-183.3-183.3-366.7-368.5-549.8-551.7c2.4-1.8,5.2-4.1,8.2-6.2c72.7-50.9,171.9-44,236.8,16.6c4.1,3.9,8.1,7.9,12.1,11.9     c94.5,94.5,188.9,188.9,283.4,283.4c2.5,2.5,5.2,5,8.2,7.9c3.3-3.2,6.1-5.9,8.9-8.7c96.1-96.1,192.3-192.2,288.4-288.4     c28.1-28.1,61.5-46.6,100.7-53.5c53.2-9.3,101.9,1.8,145.9,33.1c1.6,1.1,5.7,3.3,7.2,4.5C2078.1,2266.7,1545.3,2800.4,1532,2811z      M712.7,1332.2L723,1363l68-67l14.9-28.7c0,0-88.6-144.1-133-216.2c4.1-2.5,6.9-4.2,9.8-5.8c91.8-52.4,187-98,285.3-137     c138.6-54.9,280.9-96.3,429.4-113.9c68-8.1,136.2-10.1,204.5-5.5c77,5.1,152.8,17.4,227.7,35.7c193,47,373.9,123.8,546.1,222     c2.5,1.4,4.8,3.2,6.9,4.6c-0.1,1.1-0.2,1.7-0.2,1.7L2261,1262l73.2,11.1l-29.9-30.7c0,0,79.4-134.1,119.2-201.2     c-4.3-2.7-7.6-4.9-11-6.9c-48-28.9-97.3-55.3-147.6-80c-147.9-72.6-301.1-130.6-462.4-165.9c-6.9-1.5-12.1-4.6-16.9-9.4     c-83.8-84-167.7-167.9-251.6-251.8c-2.5-2.5-5.2-4.9-7.6-7.3c-90,90-179.5,179.5-268.1,268.1c-112.6,24.6-219.1,59.4-323.1,102     c-104.4,43-205.3,92.4-302.7,151c47.5,77.2,141.4,229.9,141.4,229.9L712.7,1332.2z M1311.2,775.3l215-215.1     c0,0,144.3,144.3,215.8,215.8c-142.1-25.6-288.4-24.7-430.2,1.8c-1.7,0.2-3.9,1.2-3.9,1.2L1311.2,775.3z M1796.2,1250.6     c66.5,19.6,130.9,44.7,193.6,73.3c10.3-5.8,19.9-11.2,30.8-17.3c-3-1.6-4.4-2.5-5.9-3.2c-78.5-36.9-159.3-67.7-243.2-90.1     c-71.4-19-143.8-31.1-217.7-33.6c-57.8-2-115.2,2.9-172.2,12.1c-105,17.1-205.9,48.5-304.1,89.1c-1.8,0.7-3.4,2.1-6.8,4.3     c24,0,45.7,0.2,67.3-0.1c5.5-0.1,11.3-1.1,16.5-2.9c65.6-23.5,132.3-43.3,200.9-55.8c33.7-6.2,67.8-9.9,101.8-14.5     c3.6-0.5,7.4-0.9,13.9-0.8c-49.3,49.9-73,74-73,74l40.7-0.1c0,0,50.3-50.5,75.5-75.8c11.1,0,21.7,0,34.1,0     c24.7,24.8,50.1,50.2,75.3,75.5c12.6,0,25.1,0,39.8,0c-24.7-24.8-48.1-48.1-71.4-71.4c0.4-0.6-1.3-1.6-0.9-2.2     C1660.1,1216.6,1729.7,1231.1,1796.2,1250.6z M403.6,1662.1l19.1-19.5L413,1614l-49,48l100,101l-21-61L403.6,1662.1z M2647,1585     l11,51c0,0,17.2,18.8,24.5,26.1c-7.7,7.9-13.8,15.2-21.2,22.8c0,13-0.3,30-0.3,41.1c19.8-19.8,44.7-44.7,64-64     C2701.6,1638.6,2647,1585,2647,1585z M936.6,1379l13.4-39l-44.2,22.7l14.2,25.5L936.6,1379z M2258.1,1295.6     c-168.2-12.1-297.2,59.1-394.2,196.8c0-57.7,0-174,0-174h-306.1V1541h-61.9v-222.6h-504l-56.7,175l-102.1-204.5l-103.3,205.6     l-54.9-175H349.5L603,2071.7h153l76.8-182.9l77.9,182.4h153l126.9-383.5l-0.2,383.6h307.8v-229.7h61.8v228.8h306.1     c0,0,0-118.2,0-176c71.3,108,167.9,177.8,295.3,197.5c129,19.9,244.2-15.4,339.5-105.4c156.1-147.5,170.6-381.8,35.2-544.5     C2463.8,1354.8,2370.7,1303.7,2258.1,1295.6z M1821.6,2029.3h-220.7v-231.5h-147.1v231.6h-220.4l-0.1-597.1l-202.1,598h-90.4     L831,1773.2l-105.5,257.5h-90.2L410.2,1362h232.3l76.6,253.5L833,1386.6l110,223.8l80.6-247.4h429.2v219.6h147.6V1362h221.2     V2029.3z M2229.8,2052.9c-203.8,0.5-363.7-157.4-366.3-357c-2.6-203.6,169.8-362.6,361.1-357c192.1-4,358.9,158.2,359.4,352.5     C2584.5,1888.3,2424,2052.5,2229.8,2052.9z M951.9,1696.5c-41-82.3-78.9-158.4-119.4-239.8c-40.6,82.7-77.2,157.5-117.5,239.6     c-33.6-106.2-65-205.4-96-303.6c-56.1,0-107.6,0-165.7,0c68.8,204.4,136.2,404.4,203.5,604.3c17.9,0,32.7,0,49.4,0     c41.7-99.7,82.9-198.3,126.7-303.3c44.2,105,86.3,204.9,128.3,304.7c16.6,0,29.9,0,47.7,0c67.5-200.1,135.1-400.6,203.9-604.6     c-57,0-110.5,0-166.7,0C1015.4,1492.5,984.7,1591,951.9,1696.5z M1419.8,1393.5h-154.4V1996H1422v-228.8h212v229.5h155.5v-603.1     h-156.6v219.5h-213.1V1393.5z M2224.3,1370c-178.3-4.4-322.7,140-329.9,306.2c-8.4,193.6,144.3,337,311.1,345.3     c187.4,9.3,346.8-136.2,348.1-327.1C2554.9,1515.4,2400.9,1366,2224.3,1370z M2225.5,1861.6c-89.9,1.8-174-80.5-168-169.8     c-3.8-78.1,60.2-162.3,164-165.5c90.1-2.8,168.8,75.9,168.6,165.4C2389.9,1788.5,2319.5,1859.7,2225.5,1861.6z M2222.3,1557.4     c-79.1,0.5-138.1,71-134.6,139.3c3.8,74.6,62.2,133.5,138.2,133c70.7,4.5,133.3-58.8,132.8-136.7     C2358.2,1617.8,2297.3,1556.9,2222.3,1557.4z M2224.1,1788.4c-49.1-0.4-93.7-46-93.7-95.7c0-50.1,42.1-90.5,93.8-90.3     c52.2,0.2,90.2,39.4,89.7,92.6C2313.5,1747.9,2274.1,1788.8,2224.1,1788.4z M1022,1075c-54-95.8-156.5-45.5-156.5-45.5l-81,43     L897,1276l80.5-41.5C977.5,1234.5,1076,1170.8,1022,1075z M926,1199l-63-113c0,0,65.7-51,102,19C1001.6,1175.4,926,1199,926,1199     z M1457.5,929.5c15.7,0,30.2,5.4,41.4,14.3l37.5-49.8c-21.9-16.3-49.4-26-79.3-26c-71.2,0-129,55.1-129,123s57.8,123,129,123     c33.2,0,63.5-12,86.4-31.6l-37.8-50.3c-11.8,12.6-28.9,20.5-48,20.5c-35.6,0-64.5-27.5-64.5-61.5S1421.9,929.5,1457.5,929.5z      M2205,1121c26.9-63.5-36-98-36-98l-86-42l-105,207l56,27l41-80l12,105l64,29l-24-108C2127,1161,2184.6,1169.2,2205,1121z      M2092,1101l24-51c0,0,42.7,13.2,28,44S2092,1101,2092,1101z M1208.8,1156.8c68.8-18.4,110.4-86.6,92.8-152.2     s-87.6-103.9-156.4-85.4c-68.8,18.4-110.4,86.6-92.8,152.2S1140,1175.2,1208.8,1156.8z M1161.7,978.9     c34.4-9.2,69.4,9.9,78.2,42.7c8.8,32.8-12,66.9-46.4,76.1c-34.4,9.2-69.4-9.9-78.2-42.7C1106.5,1022.2,1127.3,988.2,1161.7,978.9     z M1556.5,927.5l65.3,5.4l-14.7,176.5l55.8,4.4l14.6-176.3l65.3,5.4l4.4-52.8l-186.4-15.5L1556.5,927.5z M1837.2,1156.8     c68.8,18.4,138.9-19.8,156.4-85.4c17.6-65.6-24-133.8-92.8-152.2s-138.9,19.8-156.4,85.4     C1726.8,1070.2,1768.3,1138.4,1837.2,1156.8z M1807.1,1021.9c8.8-32.8,43.8-51.9,78.2-42.7c34.4,9.2,55.2,43.3,46.4,76.1     c-8.8,32.8-43.8,51.9-78.2,42.7C1819,1088.8,1798.3,1054.7,1807.1,1021.9z"/>
		</g>
	</g>
</g>
<g id="BBC_00000005266088890613378730000012275264498982837688_" class="st0">
	<g id="BBC">
		<g>
			<path fill="#FFFFFF" class="st1" d="M1107,400h240V160h-240V400z M1174.3,213.8h51.1c15.1,0,26.7,3,35,8.9c8.3,5.8,12.4,14.2,12.4,25.2     c0,6.3-1.5,11.8-4.4,16.5c-3,4.6-7.3,8.2-13.1,10.9c8,2.6,14.1,6.7,18.3,12.4c4.3,5.6,6.5,12.3,6.5,20.4c0,7.9-2.1,14.7-6.3,20.4     c-4.1,5.7-9.9,10.1-17.6,13.1c-7.6,3.1-16.8,4.6-27.6,4.6h-54.2V213.8H1174.3z M1251.6,307.1c0-12.1-8.5-18.1-25.4-18.1h-24.4     v35.7h24.1c8.3,0,14.6-1.5,19.1-4.4C1249.4,317.2,1251.6,312.8,1251.6,307.1z M1239.1,263.8c3.8-3.1,5.7-7.3,5.7-12.8     c0-10.5-7.3-15.7-22-15.7h-20.9v32.9h20.9C1229.9,268.2,1235.3,266.8,1239.1,263.8z M1707,160v240h240V160H1707z M1877,338.9     c-5.4,3.1-11.7,5.5-18.9,7.2c-7.2,1.9-14.7,2.8-22.6,2.8c-10.5,0-19.9-1.5-28.3-4.6c-8.4-3.2-15.5-7.8-21.3-13.7     c-5.8-5.9-10.2-13.1-13.3-21.7c-3.1-8.6-4.6-18.3-4.6-29.1c0-10.5,1.6-19.9,4.8-28.3c3.2-8.5,7.8-15.8,13.9-21.8     c6-6,13.3-10.7,21.7-13.9c8.5-3.2,18-4.8,28.5-4.8c7.3,0,14.1,0.8,20.5,2.4c6.5,1.5,12.6,3.7,18.1,6.7v26.3     c-5.1-3.5-10.5-6-16.5-7.8c-5.9-1.9-12.2-2.8-18.7-2.8c-9,0-16.7,1.7-23.1,5.2c-6.3,3.5-11.2,8.5-14.6,15c-3.3,6.5-5,14.5-5,23.9     s1.6,17.4,4.8,24.1c3.3,6.5,8.1,11.5,14.3,15c6.3,3.5,13.9,5.2,22.8,5.2c13.6,0,26.1-3.6,37.6-10.9v25.6H1877z M1539.1,263.8     c3.8-3.1,5.7-7.3,5.7-12.8c0-10.5-7.3-15.7-22-15.7h-20.9v32.9h20.9C1529.9,268.2,1535.3,266.8,1539.1,263.8z M1407,400h240V160     h-240V400z M1474.3,213.8h51.1c15.1,0,26.7,3,35,8.9c8.3,5.8,12.4,14.2,12.4,25.2c0,6.3-1.5,11.8-4.4,16.5     c-3,4.6-7.3,8.2-13.1,10.9c8,2.6,14.1,6.7,18.3,12.4c4.3,5.6,6.5,12.3,6.5,20.4c0,7.9-2.1,14.7-6.3,20.4     c-4.1,5.7-9.9,10.1-17.6,13.1c-7.6,3.1-16.8,4.6-27.6,4.6h-54.2V213.8H1474.3z M1551.6,307.1c0-12.1-8.5-18.1-25.4-18.1h-24.4     v35.7h24.1c8.3,0,14.6-1.5,19.1-4.4C1549.4,317.2,1551.6,312.8,1551.6,307.1z"/>
		</g>
	</g>
</g>
</svg>